<?xml version="1.0" encoding="UTF-8" standalone="no"?>
<svg
   width="194.60001"
   height="224.71774"
   viewBox="0 -1.74 194.6 224.71775"
   version="1.1"
   id="svg1"
   xmlns="http://www.w3.org/2000/svg">
  <!-- Hex sticker with pointed top/bottom (flat sides left/right) -->
  <!-- Background hexagon - Light Gray #E1E5E7 -->
  <path
     id="hex-background"
     style="fill:#e1e5e7"
     d="M 4,164.48887 V 56.748871 L 97.3,2.8788712 190.6,56.748871 V 164.48887 l -93.3,53.87 z" />
  <!-- Distributions group: prior, likelihood, posterior -->
  <g id="model-group">
    <!-- Posterior density (filled) -->
    <path id="posterior-fill" style="fill:#c5050c;fill-opacity:0.18;stroke:none" d="M 30.00,152.00 L 31.50,152.00 L 33.00,152.00 L 34.50,152.00 L 36.00,152.00 L 37.50,152.00 L 39.00,152.00 L 40.50,152.00 L 42.00,152.00 L 43.50,152.00 L 45.00,152.00 L 46.50,151.99 L 48.00,151.99 L 49.50,151.98 L 51.00,151.97 L 52.50,151.95 L 54.00,151.93 L 55.50,151.90 L 57.00,151.85 L 58.50,151.78 L 60.00,151.69 L 61.50,151.55 L 63.00,151.37 L 64.50,151.12 L 66.00,150.79 L 67.50,150.36 L 69.00,149.79 L 70.50,149.06 L 72.00,148.13 L 73.50,146.97 L 75.00,145.54 L 76.50,143.80 L 78.00,141.70 L 79.50,139.22 L 81.00,136.31 L 82.50,132.97 L 84.00,129.18 L 85.50,124.94 L 87.00,120.28 L 88.50,115.25 L 90.00,109.90 L 91.50,104.32 L 93.00,98.63 L 94.50,92.93 L 96.00,87.37 L 97.50,82.10 L 99.00,77.26 L 100.50,72.99 L 102.00,69.44 L 103.50,66.71 L 105.00,64.89 L 106.50,64.06 L 108.00,64.22 L 109.50,65.39 L 111.00,67.52 L 112.50,70.54 L 114.00,74.34 L 115.50,78.81 L 117.00,83.81 L 118.50,89.20 L 120.00,94.82 L 121.50,100.53 L 123.00,106.20 L 124.50,111.71 L 126.00,116.96 L 127.50,121.88 L 129.00,126.40 L 130.50,130.49 L 132.00,134.13 L 133.50,137.33 L 135.00,140.09 L 136.50,142.44 L 138.00,144.42 L 139.50,146.05 L 141.00,147.39 L 142.50,148.47 L 144.00,149.32 L 145.50,149.99 L 147.00,150.51 L 148.50,150.91 L 150.00,151.21 L 151.50,151.44 L 153.00,151.60 L 154.50,151.72 L 156.00,151.81 L 157.50,151.87 L 159.00,151.91 L 160.50,151.94 L 162.00,151.96 L 163.50,151.97 L 165.00,151.98 L 165.00,152.00 L 30.00,152.00 Z" />
    <!-- Prior density (dashed gray) -->
    <path id="prior" style="fill:none;stroke:#646569;stroke-width:2;stroke-linecap:round;stroke-dasharray:2,4" d="M 30.00,132.48 L 31.50,131.09 L 33.00,129.66 L 34.50,128.19 L 36.00,126.69 L 37.50,125.16 L 39.00,123.60 L 40.50,122.04 L 42.00,120.46 L 43.50,118.88 L 45.00,117.32 L 46.50,115.77 L 48.00,114.24 L 49.50,112.75 L 51.00,111.30 L 52.50,109.90 L 54.00,108.57 L 55.50,107.30 L 57.00,106.11 L 58.50,105.01 L 60.00,104.00 L 61.50,103.09 L 63.00,102.29 L 64.50,101.60 L 66.00,101.03 L 67.50,100.58 L 69.00,100.26 L 70.50,100.06 L 72.00,100.00 L 73.50,100.06 L 75.00,100.26 L 76.50,100.58 L 78.00,101.03 L 79.50,101.60 L 81.00,102.29 L 82.50,103.09 L 84.00,104.00 L 85.50,105.01 L 87.00,106.11 L 88.50,107.30 L 90.00,108.57 L 91.50,109.90 L 93.00,111.30 L 94.50,112.75 L 96.00,114.24 L 97.50,115.77 L 99.00,117.32 L 100.50,118.88 L 102.00,120.46 L 103.50,122.04 L 105.00,123.60 L 106.50,125.16 L 108.00,126.69 L 109.50,128.19 L 111.00,129.66 L 112.50,131.09 L 114.00,132.48 L 115.50,133.83 L 117.00,135.12 L 118.50,136.36 L 120.00,137.54 L 121.50,138.67 L 123.00,139.74 L 124.50,140.75 L 126.00,141.71 L 127.50,142.61 L 129.00,143.45 L 130.50,144.23 L 132.00,144.96 L 133.50,145.64 L 135.00,146.27 L 136.50,146.84 L 138.00,147.38 L 139.50,147.86 L 141.00,148.31 L 142.50,148.71 L 144.00,149.08 L 145.50,149.41 L 147.00,149.72 L 148.50,149.99 L 150.00,150.23 L 151.50,150.45 L 153.00,150.64 L 154.50,150.81 L 156.00,150.97 L 157.50,151.10 L 159.00,151.22 L 160.50,151.33 L 162.00,151.42 L 163.50,151.50 L 165.00,151.57" />
    <!-- Likelihood (thin black) -->
    <path id="likelihood" style="fill:none;stroke:#1a1a1a;stroke-width:1.6" d="M 30.00,152.00 L 31.50,152.00 L 33.00,152.00 L 34.50,152.00 L 36.00,152.00 L 37.50,152.00 L 39.00,152.00 L 40.50,151.99 L 42.00,151.99 L 43.50,151.99 L 45.00,151.98 L 46.50,151.97 L 48.00,151.96 L 49.50,151.95 L 51.00,151.92 L 52.50,151.90 L 54.00,151.86 L 55.50,151.81 L 57.00,151.74 L 58.50,151.65 L 60.00,151.54 L 61.50,151.39 L 63.00,151.20 L 64.50,150.96 L 66.00,150.66 L 67.50,150.29 L 69.00,149.83 L 70.50,149.27 L 72.00,148.60 L 73.50,147.78 L 75.00,146.82 L 76.50,145.68 L 78.00,144.35 L 79.50,142.82 L 81.00,141.06 L 82.50,139.06 L 84.00,136.83 L 85.50,134.34 L 87.00,131.60 L 88.50,128.63 L 90.00,125.42 L 91.50,122.01 L 93.00,118.43 L 94.50,114.71 L 96.00,110.90 L 97.50,107.05 L 99.00,103.22 L 100.50,99.47 L 102.00,95.88 L 103.50,92.50 L 105.00,89.41 L 106.50,86.68 L 108.00,84.35 L 109.50,82.48 L 111.00,81.11 L 112.50,80.28 L 114.00,80.00 L 115.50,80.28 L 117.00,81.11 L 118.50,82.48 L 120.00,84.35 L 121.50,86.68 L 123.00,89.41 L 124.50,92.50 L 126.00,95.88 L 127.50,99.47 L 129.00,103.22 L 130.50,107.05 L 132.00,110.90 L 133.50,114.71 L 135.00,118.43 L 136.50,122.01 L 138.00,125.42 L 139.50,128.63 L 141.00,131.60 L 142.50,134.34 L 144.00,136.83 L 145.50,139.06 L 147.00,141.06 L 148.50,142.82 L 150.00,144.35 L 151.50,145.68 L 153.00,146.82 L 154.50,147.78 L 156.00,148.60 L 157.50,149.27 L 159.00,149.83 L 160.50,150.29 L 162.00,150.66 L 163.50,150.96 L 165.00,151.20" />
    <!-- Posterior density (outline) -->
    <path id="posterior" style="fill:none;stroke:#c5050c;stroke-width:3;stroke-linejoin:round" d="M 30.00,152.00 L 31.50,152.00 L 33.00,152.00 L 34.50,152.00 L 36.00,152.00 L 37.50,152.00 L 39.00,152.00 L 40.50,152.00 L 42.00,152.00 L 43.50,152.00 L 45.00,152.00 L 46.50,151.99 L 48.00,151.99 L 49.50,151.98 L 51.00,151.97 L 52.50,151.95 L 54.00,151.93 L 55.50,151.90 L 57.00,151.85 L 58.50,151.78 L 60.00,151.69 L 61.50,151.55 L 63.00,151.37 L 64.50,151.12 L 66.00,150.79 L 67.50,150.36 L 69.00,149.79 L 70.50,149.06 L 72.00,148.13 L 73.50,146.97 L 75.00,145.54 L 76.50,143.80 L 78.00,141.70 L 79.50,139.22 L 81.00,136.31 L 82.50,132.97 L 84.00,129.18 L 85.50,124.94 L 87.00,120.28 L 88.50,115.25 L 90.00,109.90 L 91.50,104.32 L 93.00,98.63 L 94.50,92.93 L 96.00,87.37 L 97.50,82.10 L 99.00,77.26 L 100.50,72.99 L 102.00,69.44 L 103.50,66.71 L 105.00,64.89 L 106.50,64.06 L 108.00,64.22 L 109.50,65.39 L 111.00,67.52 L 112.50,70.54 L 114.00,74.34 L 115.50,78.81 L 117.00,83.81 L 118.50,89.20 L 120.00,94.82 L 121.50,100.53 L 123.00,106.20 L 124.50,111.71 L 126.00,116.96 L 127.50,121.88 L 129.00,126.40 L 130.50,130.49 L 132.00,134.13 L 133.50,137.33 L 135.00,140.09 L 136.50,142.44 L 138.00,144.42 L 139.50,146.05 L 141.00,147.39 L 142.50,148.47 L 144.00,149.32 L 145.50,149.99 L 147.00,150.51 L 148.50,150.91 L 150.00,151.21 L 151.50,151.44 L 153.00,151.60 L 154.50,151.72 L 156.00,151.81 L 157.50,151.87 L 159.00,151.91 L 160.50,151.94 L 162.00,151.96 L 163.50,151.97 L 165.00,151.98" />
    <!-- Mode of the posterior -->
    <path id="mode-line" style="stroke:#c5050c;stroke-width:1.4;stroke-linecap:round;stroke-dasharray:1.5,3.5"
       d="M 107.00,64.00 V 152.00" />
    <!-- Axis -->
    <path id="axis" style="stroke:#1a1a1a;stroke-width:1.6;stroke-linecap:round" d="M 30.00,152.00 H 165.00" />
  </g>
  <!-- Center text - ps818 in Badger Red, Red Hat Display SemiBold, outlined -->
  <path
     id="text-ps818"
     style="fill:#c5050c"
     aria-label="ps818"
     d="M57.81199999999999 186.328V163.512H60.97999999999999V165.08Q63.059999999999995 163.256 65.972 163.256Q68.30799999999999 163.256 70.16399999999999 164.376Q72.02 165.496 73.124 167.38400000000001Q74.228 169.27200000000002 74.228 171.64000000000001Q74.228 174.008 73.124 175.912Q72.02 177.816 70.148 178.936Q68.276 180.056 65.90799999999999 180.056Q64.564 180.056 63.31599999999999 179.62400000000002Q62.06799999999999 179.192 61.04399999999999 178.424V186.328ZM65.556 177.27200000000002Q67.124 177.27200000000002 68.356 176.536Q69.588 175.8 70.32399999999998 174.536Q71.05999999999999 173.27200000000002 71.05999999999999 171.67200000000003Q71.05999999999999 170.072 70.32399999999998 168.792Q69.588 167.512 68.356 166.776Q67.124 166.04000000000002 65.556 166.04000000000002Q64.17999999999999 166.04000000000002 62.995999999999995 166.55200000000002Q61.81199999999999 167.06400000000002 61.04399999999999 167.99200000000002V175.32000000000002Q61.81199999999999 176.24800000000002 63.011999999999986 176.76000000000002Q64.21199999999999 177.27200000000002 65.556 177.27200000000002Z M82.83599999999998 180.12Q80.72399999999999 180.12 78.88399999999999 179.496Q77.04399999999998 178.872 75.69999999999999 177.72L77.45999999999998 175.57600000000002Q78.70799999999998 176.60000000000002 80.05199999999999 177.11200000000002Q81.39599999999999 177.62400000000002 82.73999999999998 177.62400000000002Q84.46799999999999 177.62400000000002 85.55599999999998 176.952Q86.64399999999998 176.28 86.64399999999998 175.22400000000002Q86.64399999999998 174.328 86.00399999999999 173.832Q85.36399999999999 173.336 84.01999999999998 173.144L81.07599999999998 172.696Q78.64399999999999 172.34400000000002 77.428 171.192Q76.21199999999999 170.04000000000002 76.21199999999999 168.12Q76.21199999999999 166.64800000000002 77.01199999999999 165.544Q77.81199999999998 164.44 79.25199999999998 163.816Q80.69199999999998 163.192 82.61199999999998 163.192Q84.40399999999998 163.192 86.01999999999998 163.704Q87.63599999999998 164.216 89.13999999999999 165.304L87.53999999999999 167.416Q86.16399999999999 166.52 84.91599999999998 166.104Q83.66799999999998 165.68800000000002 82.35599999999998 165.68800000000002Q80.91599999999998 165.68800000000002 80.00399999999999 166.312Q79.09199999999998 166.936 79.09199999999998 167.928Q79.09199999999998 168.824 79.73199999999999 169.30400000000003Q80.37199999999999 169.78400000000002 81.77999999999999 170.008L84.72399999999999 170.424Q87.15599999999998 170.744 88.40399999999998 171.89600000000002Q89.65199999999999 173.048 89.65199999999999 174.96800000000002Q89.65199999999999 176.44 88.75599999999999 177.608Q87.85999999999999 178.776 86.32399999999998 179.448Q84.78799999999998 180.12 82.83599999999998 180.12Z M99.82799999999997 180.15200000000002Q97.42799999999998 180.15200000000002 95.58799999999998 179.32Q93.74799999999998 178.488 92.69199999999998 177.01600000000002Q91.63599999999998 175.544 91.63599999999998 173.656Q91.63599999999998 172.34400000000002 92.25999999999999 171.22400000000002Q92.88399999999999 170.104 94.01999999999998 169.272Q95.15599999999998 168.44 96.59599999999998 168.08800000000002Q94.73999999999998 167.512 93.58799999999998 166.152Q92.43599999999998 164.792 92.43599999999998 163.06400000000002Q92.43599999999998 161.368 93.39599999999999 160.008Q94.35599999999998 158.64800000000002 96.03599999999997 157.848Q97.71599999999998 157.048 99.82799999999997 157.048Q101.93999999999998 157.048 103.61999999999998 157.848Q105.29999999999998 158.64800000000002 106.25999999999999 160.008Q107.21999999999998 161.368 107.21999999999998 163.06400000000002Q107.21999999999998 164.792 106.08399999999997 166.152Q104.94799999999998 167.512 103.05999999999997 168.08800000000002Q105.26799999999999 168.66400000000002 106.64399999999998 170.18400000000003Q108.01999999999998 171.704 108.01999999999998 173.656Q108.01999999999998 175.544 106.97999999999999 177.01600000000002Q105.93999999999998 178.488 104.08399999999997 179.32Q102.22799999999998 180.15200000000002 99.82799999999997 180.15200000000002ZM99.82799999999997 166.904Q101.07599999999998 166.904 102.06799999999998 166.424Q103.05999999999997 165.94400000000002 103.63599999999997 165.11200000000002Q104.21199999999997 164.28 104.21199999999997 163.256Q104.21199999999997 162.20000000000002 103.63599999999997 161.368Q103.05999999999997 160.536 102.06799999999998 160.056Q101.07599999999998 159.57600000000002 99.82799999999997 159.57600000000002Q98.57999999999998 159.57600000000002 97.58799999999998 160.056Q96.59599999999998 160.536 96.01999999999998 161.368Q95.44399999999997 162.20000000000002 95.44399999999997 163.256Q95.44399999999997 164.28 96.01999999999998 165.11200000000002Q96.59599999999998 165.94400000000002 97.58799999999998 166.424Q98.57999999999998 166.904 99.82799999999997 166.904ZM99.82799999999997 177.62400000000002Q101.29999999999998 177.62400000000002 102.45199999999998 177.08Q103.60399999999998 176.536 104.27599999999998 175.592Q104.94799999999998 174.64800000000002 104.94799999999998 173.496Q104.94799999999998 172.312 104.27599999999998 171.38400000000001Q103.60399999999998 170.45600000000002 102.45199999999998 169.91200000000003Q101.29999999999998 169.36800000000002 99.82799999999997 169.36800000000002Q98.35599999999998 169.36800000000002 97.20399999999998 169.91200000000003Q96.05199999999998 170.45600000000002 95.37999999999998 171.38400000000001Q94.70799999999998 172.312 94.70799999999998 173.496Q94.70799999999998 174.64800000000002 95.37999999999998 175.592Q96.05199999999998 176.536 97.20399999999998 177.08Q98.35599999999998 177.62400000000002 99.82799999999997 177.62400000000002Z M114.25999999999998 179.8V160.69600000000003L110.22799999999998 162.424V159.57600000000002L115.41199999999998 157.4H117.45999999999998V179.8Z M129.076 180.15200000000002Q126.67599999999999 180.15200000000002 124.83599999999998 179.32Q122.99599999999998 178.488 121.93999999999998 177.01600000000002Q120.88399999999999 175.544 120.88399999999999 173.656Q120.88399999999999 172.34400000000002 121.50799999999998 171.22400000000002Q122.13199999999999 170.104 123.26799999999999 169.272Q124.40399999999998 168.44 125.84399999999998 168.08800000000002Q123.98799999999999 167.512 122.83599999999998 166.152Q121.68399999999998 164.792 121.68399999999998 163.06400000000002Q121.68399999999998 161.368 122.64399999999998 160.008Q123.60399999999998 158.64800000000002 125.28399999999999 157.848Q126.96399999999998 157.048 129.076 157.048Q131.188 157.048 132.868 157.848Q134.54799999999997 158.64800000000002 135.50799999999998 160.008Q136.468 161.368 136.468 163.06400000000002Q136.468 164.792 135.332 166.152Q134.196 167.512 132.308 168.08800000000002Q134.516 168.66400000000002 135.892 170.18400000000003Q137.26799999999997 171.704 137.26799999999997 173.656Q137.26799999999997 175.544 136.22799999999998 177.01600000000002Q135.188 178.488 133.332 179.32Q131.476 180.15200000000002 129.076 180.15200000000002ZM129.076 166.904Q130.32399999999998 166.904 131.31599999999997 166.424Q132.308 165.94400000000002 132.884 165.11200000000002Q133.45999999999998 164.28 133.45999999999998 163.256Q133.45999999999998 162.20000000000002 132.884 161.368Q132.308 160.536 131.31599999999997 160.056Q130.32399999999998 159.57600000000002 129.076 159.57600000000002Q127.82799999999999 159.57600000000002 126.83599999999998 160.056Q125.84399999999998 160.536 125.26799999999997 161.368Q124.69199999999998 162.20000000000002 124.69199999999998 163.256Q124.69199999999998 164.28 125.26799999999997 165.11200000000002Q125.84399999999998 165.94400000000002 126.83599999999998 166.424Q127.82799999999999 166.904 129.076 166.904ZM129.076 177.62400000000002Q130.54799999999997 177.62400000000002 131.7 177.08Q132.85199999999998 176.536 133.524 175.592Q134.196 174.64800000000002 134.196 173.496Q134.196 172.312 133.524 171.38400000000001Q132.85199999999998 170.45600000000002 131.7 169.91200000000003Q130.54799999999997 169.36800000000002 129.076 169.36800000000002Q127.60399999999998 169.36800000000002 126.45199999999998 169.91200000000003Q125.29999999999998 170.45600000000002 124.62799999999999 171.38400000000001Q123.95599999999999 172.312 123.95599999999999 173.496Q123.95599999999999 174.64800000000002 124.62799999999999 175.592Q125.29999999999998 176.536 126.45199999999998 177.08Q127.60399999999998 177.62400000000002 129.076 177.62400000000002Z" />
  <!-- Border hexagon - Badger Red #C5050C -->
  <path
     id="hex-border"
     style="fill:none;stroke:#c5050c;stroke-width:8"
     d="M 4,164.48887 V 56.748871 L 97.3,2.8788712 190.6,56.748871 V 164.48887 l -93.3,53.87 z" />
</svg>
